<svg width="19" height="21" viewBox="0 0 19 21" fill="none" xmlns="http://www.w3.org/2000/svg">
<path fill-rule="evenodd" clip-rule="evenodd" d="M13.2396 2.22409C12.2859 1.60417 11.2651 1.26429 10.4899 1.10827C10.3375 0.750694 9.98284 0.500031 9.5696 0.500031C9.15635 0.500031 8.80166 0.750691 8.64925 1.10826C7.8741 1.26428 6.85332 1.60417 5.8996 2.22409C4.4251 3.18251 3.06958 4.84644 3.06958 7.50003C3.06958 10.6677 2.66283 12.2678 2.2163 13.2859C1.98963 13.8027 1.74054 14.1991 1.46811 14.6272L1.44168 14.6687C1.18068 15.0786 0.885005 15.543 0.646507 16.1154C0.51791 16.424 0.552068 16.7765 0.737534 17.0547C0.923 17.3329 1.23523 17.5 1.56958 17.5H6.56957C6.56957 19.1569 7.91271 20.5 9.56957 20.5C11.2264 20.5 12.5696 19.1569 12.5696 17.5H17.5696C17.9039 17.5 18.2162 17.3329 18.4016 17.0547C18.5871 16.7765 18.6213 16.424 18.4927 16.1154C18.2542 15.543 17.9585 15.0786 17.6975 14.6687L17.6711 14.6272C17.3986 14.1991 17.1495 13.8027 16.9229 13.2859C16.4763 12.2678 16.0696 10.6677 16.0696 7.50003C16.0696 4.84644 14.7141 3.18251 13.2396 2.22409ZM15.8564 15.5C15.6122 15.1121 15.3411 14.6587 15.0913 14.0892C14.4962 12.7323 14.0696 10.8324 14.0696 7.50003C14.0696 5.65363 13.1751 4.56755 12.1496 3.90097C11.0669 3.19722 9.88227 3.00003 9.56958 3.00003C9.25689 3.00003 8.07228 3.19722 6.98957 3.90097C5.96407 4.56755 5.06958 5.65363 5.06958 7.50003C5.06958 10.8324 4.64301 12.7323 4.04787 14.0892C3.79811 14.6587 3.52696 15.1121 3.28281 15.5H15.8564Z" fill="#5F6877"/>
</svg>
