<svg width="16" height="16" viewBox="0 0 16 16" fill="none" xmlns="http://www.w3.org/2000/svg">
<path d="M13.4352 14.435C13.8257 14.8256 14.4589 14.8256 14.8494 14.435C15.2399 14.0445 15.2399 13.4113 14.8494 13.0208L9.32857 7.5L14.7072 2.12132C15.0978 1.7308 15.0978 1.09763 14.7072 0.707107C14.3167 0.316582 13.6836 0.316582 13.293 0.707107L7.91435 6.08579L2.12146 0.292893C1.73093 -0.097631 1.09777 -0.0976312 0.707245 0.292893C0.31672 0.683417 0.31672 1.31658 0.707245 1.70711L6.50014 7.5L0.56511 13.435C0.174586 13.8256 0.174586 14.4587 0.565109 14.8492C0.955633 15.2398 1.5888 15.2398 1.97932 14.8492L7.91435 8.91421L13.4352 14.435Z" fill="#5F6877"/>
</svg>
