<svg width="14" height="14" viewBox="0 0 14 14" fill="none" xmlns="http://www.w3.org/2000/svg">
<path fill-rule="evenodd" clip-rule="evenodd" d="M3 6C4.65685 6 6 4.65686 6 3C6 1.34314 4.65685 0 3 0C1.34315 0 0 1.34314 0 3C0 4.65686 1.34315 6 3 6ZM11 6C12.6569 6 14 4.65686 14 3C14 1.34314 12.6569 0 11 0C9.34315 0 8 1.34314 8 3C8 4.65686 9.34315 6 11 6ZM14 11C14 12.6569 12.6569 14 11 14C9.34315 14 8 12.6569 8 11C8 9.34314 9.34315 8 11 8C12.6569 8 14 9.34314 14 11ZM3 14C4.65685 14 6 12.6569 6 11C6 9.34314 4.65685 8 3 8C1.34315 8 0 9.34314 0 11C0 12.6569 1.34315 14 3 14Z" fill="#5F6877"/>
</svg>
