<svg width="21" height="21" viewBox="0 0 21 21" fill="none" xmlns="http://www.w3.org/2000/svg">
<path d="M0.907471 18.7558C0.907471 19.2853 1.32019 19.723 1.84875 19.7541L7.85916 20.1077C8.41049 20.1401 8.88372 19.7194 8.91615 19.1681C8.94859 18.6168 8.52793 18.1436 7.9766 18.1111L4.18919 17.8883L8.97854 13.099C9.36906 12.7085 9.36906 12.0753 8.97854 11.6848C8.58801 11.2942 7.95485 11.2942 7.56432 11.6848L2.90747 16.3416L2.90747 13.099C2.90747 12.5467 2.45976 12.099 1.90747 12.099C1.35519 12.099 0.907472 12.5467 0.907472 13.099L0.907471 18.7558Z" fill="#5F6877"/>
<path d="M18.878 0.785278C19.4075 0.785279 19.8452 1.19799 19.8763 1.72656L20.2299 7.73697C20.2623 8.2883 19.8416 8.76153 19.2903 8.79396C18.739 8.82639 18.2657 8.40574 18.2333 7.85441L18.0105 4.067L13.2212 8.85635C12.8307 9.24687 12.1975 9.24687 11.807 8.85635C11.4164 8.46582 11.4164 7.83266 11.807 7.44213L16.4638 2.78528L13.2212 2.78528C12.6689 2.78528 12.2212 2.33756 12.2212 1.78528C12.2212 1.233 12.6689 0.78528 13.2212 0.785281L18.878 0.785278Z" fill="#5F6877"/>
</svg>
