<svg width="20" height="18" viewBox="0 0 20 18" fill="none" xmlns="http://www.w3.org/2000/svg">
<path fill-rule="evenodd" clip-rule="evenodd" d="M5 0C2.23859 0 0 2.23859 0 5C0 10.4343 10 18 10 18C10 18 20 10.4343 20 5C20 2.23859 17.7614 0 15 0C12.2386 0 10 2 10 2C10 2 7.76141 0 5 0ZM3.79999 9C4.18231 9.51175 4.6044 10.0154 5.0433 10.5H15.0068C15.4457 10.0154 15.8678 9.51175 16.2501 9H3.79999ZM10.0251 15C10.0251 15 8.58603 13.9415 6.92865 12.4H13.1214C11.4641 13.9415 10.0251 15 10.0251 15Z" fill="#5F6877"/>
</svg>
