<svg width="20" height="22" viewBox="0 0 20 22" fill="none" xmlns="http://www.w3.org/2000/svg">
<path d="M0 6.5C0 2.91016 2.91016 0 6.5 0C7.88071 0 9 1.11929 9 2.5V3C9 4.65686 7.65686 6 6 6H4V4H6C6.55228 4 7 3.55228 7 3V2.5C7 2.22386 6.77614 2 6.5 2C4.01471 2 2 4.01471 2 6.5C2 8.98529 4.01471 11 6.5 11C6.77614 11 7 10.7761 7 10.5V10C7 9.44772 6.55228 9 6 9H4V7H6C7.65686 7 9 8.34314 9 10V14H11V10C11 8.34314 12.3431 7 14 7H16V9H14C13.4477 9 13 9.44772 13 10V10.5C13 10.7761 13.2239 11 13.5 11C15.9853 11 18 8.98529 18 6.5C18 4.01471 15.9853 2 13.5 2C13.2239 2 13 2.22386 13 2.5V3C13 3.55228 13.4477 4 14 4H16V6H14C12.3431 6 11 4.65686 11 3V2.5C11 1.11929 12.1193 0 13.5 0C17.0898 0 20 2.91016 20 6.5C20 10.0898 17.0898 13 13.5 13H13V14V14C14.1046 14 15 14.8954 15 16V18C15 19.1046 14.1046 20 13 20V22H11V20H9V22H7V20C5.89543 20 5 19.1046 5 18V16C5 14.8954 5.89543 14 7 14V14V13H6.5C2.91016 13 0 10.0898 0 6.5Z" fill="#5F6877"/>
</svg>
